<?xml version='1.0' encoding='ascii'?>
<svg xmlns="http://www.w3.org/2000/svg" xmlns:inkscape="http://www.inkscape.org/namespaces/inkscape" version="1.1" width="1920" height="1080">
    <g id="ViewLayer_LineSet" inkscape:groupmode="lineset" inkscape:label="ViewLayer_LineSet">
        <g inkscape:groupmode="layer" id="strokes" inkscape:label="strokes">
            <path fill="none" stroke-width="3.0" stroke-linecap="butt" stroke-opacity="1.0" stroke="rgb(0, 0, 0)" stroke-linejoin="round" d=" M 1157.081, 49.781 1147.921, 53.792 1138.760, 57.803 1129.600, 61.815 1120.440, 65.826 1111.280, 69.837 1102.120, 73.848 1092.959, 77.860 1083.799, 81.871 1074.639, 85.882 1065.479, 89.894 1056.319, 93.905 1047.158, 97.916 1037.998, 101.928 1028.838, 105.939 1019.678, 109.950 1010.518, 113.961 1001.357, 117.973 992.197, 121.984 983.037, 125.995 973.877, 130.007 964.717, 134.018 955.556, 138.029 946.396, 142.041 937.236, 146.052 928.076, 150.063 918.916, 154.075 909.755, 158.086 900.595, 162.097 891.435, 166.109 882.275, 170.120 873.115, 174.131 863.954, 178.142 854.794, 182.154 845.634, 186.165 836.474, 190.176 827.313, 194.188 818.153, 198.199 808.993, 202.210 799.833, 206.222 790.673, 210.233 781.512, 214.244 772.352, 218.255 763.192, 222.267 754.032, 226.278 744.872, 230.289 735.711, 234.301 726.551, 238.312 717.391, 242.323 708.231, 246.335 699.071, 250.346 689.910, 254.357 680.750, 258.369 671.590, 262.380 662.430, 266.391 653.270, 270.402 644.109, 274.414 634.949, 278.425 625.789, 282.436 616.629, 286.448 607.468, 290.459 598.308, 294.470 589.148, 298.482 579.988, 302.493 570.828, 306.504 561.667, 310.516 552.507, 314.527 543.347, 318.538 534.187, 322.549 525.027, 326.561 515.866, 330.572 506.706, 334.583 497.546, 338.595 488.386, 342.606 479.226, 346.617 470.065, 350.629 460.905, 354.640 451.745, 358.651 442.585, 362.663 433.424, 366.674 424.264, 370.685 415.104, 374.696 405.944, 378.708 396.784, 382.719 387.623, 386.730 378.463, 390.742 369.303, 394.753 360.143, 398.764 350.983, 402.776 341.822, 406.787 330.437, 411.773 330.437, 421.773 330.437, 431.773 330.437, 441.773 330.437, 445.477 336.912, 453.098 343.387, 460.718 349.862, 468.339 356.337, 475.959 362.812, 483.580 369.287, 491.201 375.763, 498.821 382.238, 506.442 388.713, 514.062 395.188, 521.683 401.663, 529.303 408.138, 536.924 414.614, 544.544 421.089, 552.165 427.564, 559.785 434.039, 567.406 440.514, 575.026 446.989, 582.647 453.465, 590.267 459.940, 597.888 466.415, 605.508 472.890, 613.129 479.365, 620.749 485.840, 628.370 492.315, 635.990 498.791, 643.611 505.266, 651.231 511.741, 658.852 518.216, 666.472 524.691, 674.093 531.166, 681.714 537.642, 689.334 544.117, 696.955 550.592, 704.575 557.067, 712.196 563.542, 719.816 570.017, 727.437 576.492, 735.057 582.968, 742.678 589.443, 750.298 595.918, 757.919 602.393, 765.539 608.868, 773.160 615.343, 780.780 621.819, 788.401 628.294, 796.021 634.769, 803.642 641.244, 811.262 647.719, 818.883 654.194, 826.503 660.670, 834.124 667.145, 841.744 673.620, 849.365 680.095, 856.986 686.570, 864.606 693.045, 872.227 699.521, 879.847 705.996, 887.468 712.471, 895.088 718.946, 902.709 725.421, 910.329 731.896, 917.950 738.371, 925.570 744.847, 933.191 751.322, 940.811 757.797, 948.432 764.272, 956.052 770.747, 963.673 777.222, 971.293 783.698, 978.914 790.173, 986.534 796.648, 994.155 803.123, 1001.775 809.598, 1009.396 816.073, 1017.016 822.548, 1024.637 829.024, 1032.257 834.682, 1038.917 843.842, 1034.905 853.002, 1030.894 862.162, 1026.883 871.323, 1022.871 880.483, 1018.860 889.643, 1014.849 898.803, 1010.837 907.964, 1006.826 917.124, 1002.815 926.284, 998.804 935.444, 994.792 944.604, 990.781 953.765, 986.770 962.925, 982.758 972.085, 978.747 981.245, 974.736 990.405, 970.724 999.566, 966.713 1008.726, 962.702 1017.886, 958.690 1027.046, 954.679 1036.206, 950.668 1045.367, 946.657 1054.527, 942.645 1063.687, 938.634 1072.847, 934.623 1082.007, 930.611 1091.168, 926.600 1100.328, 922.589 1109.488, 918.577 1118.648, 914.566 1127.809, 910.555 1136.969, 906.543 1146.129, 902.532 1155.289, 898.521 1164.449, 894.510 1173.610, 890.498 1182.770, 886.487 1191.930, 882.476 1201.090, 878.464 1210.250, 874.453 1219.411, 870.442 1228.571, 866.430 1237.731, 862.419 1246.891, 858.408 1256.052, 854.396 1265.212, 850.385 1274.372, 846.374 1283.532, 842.363 1292.692, 838.351 1301.853, 834.340 1311.013, 830.329 1320.173, 826.317 1329.333, 822.306 1338.493, 818.295 1347.654, 814.283 1356.814, 810.272 1365.974, 806.261 1375.134, 802.249 1384.294, 798.238 1393.455, 794.227 1402.615, 790.216 1411.775, 786.204 1420.935, 782.193 1430.095, 778.182 1439.256, 774.170 1448.416, 770.159 1457.576, 766.148 1466.736, 762.136 1475.896, 758.125 1485.057, 754.114 1494.217, 750.102 1503.377, 746.091 1512.537, 742.080 1521.698, 738.069 1530.858, 734.057 1540.018, 730.046 1549.178, 726.035 1558.338, 722.023 1567.499, 718.012 1576.659, 714.001 1585.819, 709.989 1594.979, 705.978 1604.139, 701.967 1613.300, 697.955 1622.460, 693.944 1631.620, 689.933 1640.780, 685.922 1649.940, 681.910 1661.326, 676.924 1661.326, 666.924 1661.326, 656.924 1661.326, 646.924 1661.326, 643.220 1654.851, 635.599 1648.376, 627.979 1641.901, 620.358 1635.426, 612.738 1628.951, 605.117 1622.475, 597.497 1616.000, 589.876 1609.525, 582.256 1603.050, 574.635 1596.575, 567.015 1590.100, 559.394 1583.624, 551.774 1577.149, 544.153 1570.674, 536.532 1564.199, 528.912 1557.724, 521.291 1551.249, 513.671 1544.773, 506.050 1538.298, 498.430 1531.823, 490.809 1525.348, 483.189 1518.873, 475.568 1512.398, 467.948 1505.922, 460.327 1499.447, 452.707 1492.972, 445.086 1486.497, 437.466 1480.022, 429.845 1473.547, 422.225 1467.072, 414.604 1460.596, 406.984 1454.121, 399.363 1447.646, 391.743 1441.171, 384.122 1434.696, 376.502 1428.221, 368.881 1421.745, 361.261 1415.270, 353.640 1408.795, 346.019 1402.320, 338.399 1395.845, 330.778 1389.370, 323.158 1382.895, 315.537 1376.419, 307.917 1369.944, 300.296 1363.469, 292.676 1356.994, 285.055 1350.519, 277.435 1344.044, 269.814 1337.568, 262.194 1331.093, 254.573 1324.618, 246.953 1318.143, 239.332 1311.668, 231.712 1305.193, 224.091 1298.718, 216.471 1292.242, 208.850 1285.767, 201.230 1279.292, 193.609 1272.817, 185.989 1266.342, 178.368 1259.867, 170.747 1253.391, 163.127 1246.916, 155.506 1240.441, 147.886 1233.966, 140.265 1227.491, 132.645 1221.016, 125.024 1214.540, 117.404 1208.065, 109.783 1201.590, 102.163 1195.115, 94.542 1188.640, 86.922 1182.165, 79.301 1175.690, 71.681 1169.214, 64.060 1162.739, 56.440 1157.081, 49.781 " />
            <path fill="none" stroke-width="3.0" stroke-linecap="butt" stroke-opacity="1.0" stroke="rgb(0, 0, 0)" stroke-linejoin="round" d=" M 330.437, 411.773 336.912, 419.393 343.387, 427.014 349.862, 434.634 356.337, 442.255 362.812, 449.875 369.287, 457.496 375.763, 465.117 382.238, 472.737 388.713, 480.358 395.188, 487.978 401.663, 495.599 408.138, 503.219 414.614, 510.840 421.089, 518.460 427.564, 526.081 434.039, 533.701 440.514, 541.322 446.989, 548.942 453.465, 556.563 459.940, 564.183 466.415, 571.804 472.890, 579.424 479.365, 587.045 485.840, 594.665 492.315, 602.286 498.791, 609.906 505.266, 617.527 511.741, 625.147 518.216, 632.768 524.691, 640.389 531.166, 648.009 537.642, 655.630 544.117, 663.250 550.592, 670.871 557.067, 678.491 563.542, 686.112 570.017, 693.732 576.492, 701.353 582.968, 708.973 589.443, 716.594 595.918, 724.214 602.393, 731.835 608.868, 739.455 615.343, 747.076 621.819, 754.696 628.294, 762.317 634.769, 769.937 641.244, 777.558 647.719, 785.178 654.194, 792.799 660.670, 800.420 667.145, 808.040 673.620, 815.661 680.095, 823.281 686.570, 830.902 693.045, 838.522 699.521, 846.143 705.996, 853.763 712.471, 861.384 718.946, 869.004 725.421, 876.625 731.896, 884.245 738.371, 891.866 744.847, 899.486 751.322, 907.107 757.797, 914.727 764.272, 922.348 770.747, 929.968 777.222, 937.589 783.698, 945.209 790.173, 952.830 796.648, 960.450 803.123, 968.071 809.598, 975.691 816.073, 983.312 822.548, 990.933 829.024, 998.553 834.682, 1005.212 " />
            <path fill="none" stroke-width="3.0" stroke-linecap="butt" stroke-opacity="1.0" stroke="rgb(0, 0, 0)" stroke-linejoin="round" d=" M 834.682, 1038.917 834.682, 1028.917 834.682, 1018.917 834.682, 1008.917 834.682, 1005.212 843.842, 1001.201 853.002, 997.190 862.162, 993.178 871.323, 989.167 880.483, 985.156 889.643, 981.144 898.803, 977.133 907.964, 973.122 917.124, 969.110 926.284, 965.099 935.444, 961.088 944.604, 957.076 953.765, 953.065 962.925, 949.054 972.085, 945.043 981.245, 941.031 990.405, 937.020 999.566, 933.009 1008.726, 928.997 1017.886, 924.986 1027.046, 920.975 1036.206, 916.963 1045.367, 912.952 1054.527, 908.941 1063.687, 904.929 1072.847, 900.918 1082.007, 896.907 1091.168, 892.896 1100.328, 888.884 1109.488, 884.873 1118.648, 880.862 1127.809, 876.850 1136.969, 872.839 1146.129, 868.828 1155.289, 864.816 1164.449, 860.805 1173.610, 856.794 1182.770, 852.782 1191.930, 848.771 1201.090, 844.760 1210.250, 840.749 1219.411, 836.737 1228.571, 832.726 1237.731, 828.715 1246.891, 824.703 1256.052, 820.692 1265.212, 816.681 1274.372, 812.669 1283.532, 808.658 1292.692, 804.647 1301.853, 800.635 1311.013, 796.624 1320.173, 792.613 1329.333, 788.602 1338.493, 784.590 1347.654, 780.579 1356.814, 776.568 1365.974, 772.556 1375.134, 768.545 1384.294, 764.534 1393.455, 760.522 1402.615, 756.511 1411.775, 752.500 1420.935, 748.488 1430.095, 744.477 1439.256, 740.466 1448.416, 736.455 1457.576, 732.443 1466.736, 728.432 1475.896, 724.421 1485.057, 720.409 1494.217, 716.398 1503.377, 712.387 1512.537, 708.375 1521.698, 704.364 1530.858, 700.353 1540.018, 696.341 1549.178, 692.330 1558.338, 688.319 1567.499, 684.308 1576.659, 680.296 1585.819, 676.285 1594.979, 672.274 1604.139, 668.262 1613.300, 664.251 1622.460, 660.240 1631.620, 656.228 1640.780, 652.217 1649.940, 648.206 1661.326, 643.220 " />
            <path fill="none" stroke-width="3.0" stroke-linecap="butt" stroke-opacity="1.0" stroke="rgb(0, 0, 0)" stroke-linejoin="round" d=" M 970.430, 346.119 961.116, 349.760 958.988, 350.591 958.988, 350.591 " />
            <path fill="none" stroke-width="3.0" stroke-linecap="butt" stroke-opacity="1.0" stroke="rgb(0, 0, 0)" stroke-linejoin="round" d=" M 1116.508, 360.842 1107.857, 355.826 1106.373, 354.965 1097.328, 350.699 1095.484, 349.830 " />
            <path fill="none" stroke-width="3.0" stroke-linecap="butt" stroke-opacity="1.0" stroke="rgb(0, 0, 0)" stroke-linejoin="round" d=" M 1141.456, 382.323 1134.582, 375.061 1134.134, 374.587 " />
            <path fill="none" stroke-width="3.0" stroke-linecap="butt" stroke-opacity="1.0" stroke="rgb(0, 0, 0)" stroke-linejoin="round" d=" M 1152.766, 399.150 1147.687, 390.537 " />
            <path fill="none" stroke-width="3.0" stroke-linecap="butt" stroke-opacity="1.0" stroke="rgb(0, 0, 0)" stroke-linejoin="round" d=" M 1160.764, 435.890 1160.663, 426.537 1159.285, 417.237 1156.644, 408.078 " />
            <path fill="none" stroke-width="3.0" stroke-linecap="butt" stroke-opacity="1.0" stroke="rgb(0, 0, 0)" stroke-linejoin="round" d=" M 1160.764, 435.890 1159.588, 445.204 " />
            <path fill="none" stroke-width="3.0" stroke-linecap="butt" stroke-opacity="1.0" stroke="rgb(0, 0, 0)" stroke-linejoin="round" d=" M 1153.461, 463.362 1149.657, 470.103 1148.569, 472.030 " />
            <path fill="none" stroke-width="3.0" stroke-linecap="butt" stroke-opacity="1.0" stroke="rgb(0, 0, 0)" stroke-linejoin="round" d=" M 1127.177, 495.405 1125.887, 496.346 1118.037, 502.069 1109.456, 507.205 1108.030, 508.059 " />
            <path fill="none" stroke-width="3.0" stroke-linecap="butt" stroke-opacity="1.0" stroke="rgb(0, 0, 0)" stroke-linejoin="round" d=" M 1097.254, 513.315 1087.941, 516.956 1085.813, 517.788 " />
            <path fill="none" stroke-width="3.0" stroke-linecap="butt" stroke-opacity="1.0" stroke="rgb(0, 0, 0)" stroke-linejoin="round" d=" M 1073.816, 521.434 1064.057, 523.619 1061.378, 524.218 1051.487, 525.688 1048.621, 526.114 1038.650, 526.875 1035.666, 527.103 " />
            <path fill="none" stroke-width="3.0" stroke-linecap="butt" stroke-opacity="1.0" stroke="rgb(0, 0, 0)" stroke-linejoin="round" d=" M 996.866, 524.578 987.083, 522.507 984.370, 521.933 974.768, 519.140 972.295, 518.421 " />
            <path fill="none" stroke-width="3.0" stroke-linecap="butt" stroke-opacity="1.0" stroke="rgb(0, 0, 0)" stroke-linejoin="round" d=" M 922.109, 489.319 915.234, 482.056 914.787, 481.583 " />
            <path fill="none" stroke-width="3.0" stroke-linecap="butt" stroke-opacity="1.0" stroke="rgb(0, 0, 0)" stroke-linejoin="round" d=" M 908.556, 473.369 903.477, 464.757 899.598, 455.828 896.958, 446.669 895.580, 437.369 895.479, 428.017 895.964, 424.174 896.655, 418.702 899.097, 409.515 902.782, 400.545 906.586, 393.804 907.674, 391.876 913.574, 383.802 913.726, 383.594 920.477, 376.217 920.879, 375.777 928.354, 369.134 929.066, 368.502 " />
        </g>
    </g>
    <g id="ViewLayer_LineSet 2" inkscape:groupmode="lineset" inkscape:label="ViewLayer_LineSet 2">
        <g inkscape:groupmode="layer" id="strokes" inkscape:label="strokes">
            <path fill="none" stroke-width="3.0" stroke-linecap="butt" stroke-opacity="1.0" stroke="rgb(255, 0, 0)" stroke-linejoin="round" d=" M 931.402, 718.583 940.562, 714.571 949.722, 710.560 958.882, 706.549 968.042, 702.537 977.203, 698.526 986.363, 694.515 995.523, 690.504 1004.683, 686.492 1013.844, 682.481 1023.004, 678.470 1032.164, 674.458 1041.324, 670.447 1050.484, 666.436 1059.645, 662.424 1068.805, 658.413 1077.965, 654.402 1087.125, 650.390 1096.285, 646.379 1105.446, 642.368 1114.606, 638.357 1123.766, 634.345 1132.926, 630.334 1142.086, 626.323 1151.247, 622.311 1160.407, 618.300 1169.567, 614.289 1178.727, 610.277 1187.887, 606.266 1197.048, 602.255 1206.208, 598.243 1215.368, 594.232 1224.528, 590.221 1233.688, 586.210 1242.849, 582.198 1252.009, 578.187 1261.169, 574.176 1270.329, 570.164 1279.490, 566.153 1288.650, 562.142 1297.810, 558.130 1306.970, 554.119 1316.130, 550.108 1325.291, 546.096 1334.451, 542.085 1343.611, 538.074 1352.771, 534.062 1361.931, 530.051 1371.092, 526.040 1380.252, 522.029 1389.412, 518.017 1398.572, 514.006 1406.516, 510.527 1415.676, 506.516 1424.836, 502.505 1427.388, 501.387 1420.913, 493.767 1414.438, 486.146 1407.963, 478.526 1401.488, 470.905 1395.012, 463.285 1388.537, 455.664 1382.062, 448.044 1375.587, 440.423 1369.112, 432.803 1362.637, 425.182 1356.161, 417.562 1349.686, 409.941 1343.211, 402.320 1336.736, 394.700 1330.261, 387.079 1323.786, 379.459 1317.311, 371.838 1310.835, 364.218 1304.360, 356.597 1297.885, 348.977 1291.410, 341.356 1284.935, 333.736 1278.460, 326.115 1271.984, 318.495 1265.509, 310.874 1259.034, 303.254 1252.559, 295.633 1246.084, 288.013 1239.609, 280.392 1233.134, 272.772 1226.658, 265.151 1220.183, 257.531 1213.708, 249.910 1207.233, 242.290 1200.758, 234.669 1194.283, 227.049 1187.807, 219.428 1181.332, 211.807 1174.857, 204.187 1168.382, 196.566 1161.907, 188.946 1155.432, 181.325 1148.956, 173.705 1142.481, 166.084 1136.006, 158.464 1129.531, 150.843 1124.841, 145.324 1115.681, 149.335 1106.521, 153.346 1097.360, 157.358 1088.200, 161.369 1079.040, 165.380 1069.880, 169.392 1060.720, 173.403 1051.559, 177.414 1042.399, 181.426 1033.239, 185.437 1024.079, 189.448 1014.919, 193.459 1005.758, 197.471 996.598, 201.482 987.438, 205.493 978.278, 209.505 969.117, 213.516 959.957, 217.527 950.797, 221.539 941.637, 225.550 932.477, 229.561 923.316, 233.573 914.156, 237.584 904.996, 241.595 895.836, 245.606 886.676, 249.618 877.515, 253.629 868.355, 257.640 859.195, 261.652 850.035, 265.663 840.875, 269.674 831.714, 273.686 822.554, 277.697 813.394, 281.708 804.234, 285.720 795.074, 289.731 785.913, 293.742 776.753, 297.753 767.593, 301.765 758.433, 305.776 749.273, 309.787 740.112, 313.799 730.952, 317.810 721.792, 321.821 712.632, 325.833 703.471, 329.844 694.311, 333.855 685.151, 337.867 675.991, 341.878 666.831, 345.889 657.670, 349.900 648.510, 353.912 639.350, 357.923 628.854, 362.519 635.330, 370.140 641.805, 377.760 648.280, 385.381 649.727, 387.083 656.202, 394.704 662.677, 402.325 669.152, 409.945 675.627, 417.566 682.102, 425.186 688.578, 432.807 695.053, 440.427 701.528, 448.048 708.003, 455.668 714.478, 463.289 720.953, 470.909 727.429, 478.530 733.904, 486.150 740.379, 493.771 746.854, 501.391 753.329, 509.012 759.804, 516.632 766.280, 524.253 772.755, 531.873 779.230, 539.494 785.705, 547.114 792.180, 554.735 798.655, 562.355 805.130, 569.976 811.606, 577.596 818.081, 585.217 824.556, 592.838 831.031, 600.458 837.506, 608.079 843.981, 615.699 850.457, 623.320 856.932, 630.940 863.407, 638.561 869.882, 646.181 876.357, 653.802 882.832, 661.422 889.307, 669.043 895.783, 676.663 902.258, 684.284 908.733, 691.904 915.208, 699.525 921.683, 707.145 928.159, 714.766 931.402, 718.583 " />
            <path fill="none" stroke-width="3.0" stroke-linecap="butt" stroke-opacity="1.0" stroke="rgb(255, 0, 0)" stroke-linejoin="round" d=" M 1427.388, 535.092 1427.388, 525.092 1427.388, 515.092 1427.388, 505.092 1427.388, 501.387 " />
            <path fill="none" stroke-width="3.0" stroke-linecap="butt" stroke-opacity="1.0" stroke="rgb(255, 0, 0)" stroke-linejoin="round" d=" M 1427.388, 535.092 1418.228, 539.103 1409.068, 543.114 1399.908, 547.126 1390.747, 551.137 1381.587, 555.148 1372.427, 559.160 1363.267, 563.171 1354.107, 567.182 1344.946, 571.193 1335.786, 575.205 1326.626, 579.216 1317.466, 583.227 1308.306, 587.239 1299.145, 591.250 1289.985, 595.261 1280.825, 599.273 1271.665, 603.284 1262.505, 607.295 1253.344, 611.307 1244.184, 615.318 1235.024, 619.329 1225.864, 623.340 1216.703, 627.352 1207.543, 631.363 1198.383, 635.374 1189.223, 639.386 1180.063, 643.397 1170.902, 647.408 1161.742, 651.420 1152.582, 655.431 1143.422, 659.442 1134.262, 663.454 1125.101, 667.465 1115.941, 671.476 1106.781, 675.487 1097.621, 679.499 1088.461, 683.510 1079.300, 687.521 1070.140, 691.533 1060.980, 695.544 1051.820, 699.555 1042.659, 703.567 1033.499, 707.578 1024.339, 711.589 1015.179, 715.601 1006.019, 719.612 996.858, 723.623 987.698, 727.634 978.538, 731.646 969.378, 735.657 960.218, 739.668 951.057, 743.680 941.897, 747.691 931.402, 752.287 924.926, 744.667 918.451, 737.046 911.976, 729.426 905.501, 721.805 899.026, 714.185 892.551, 706.564 886.076, 698.943 879.600, 691.323 873.125, 683.702 866.650, 676.082 860.175, 668.461 853.700, 660.841 847.225, 653.220 840.749, 645.600 834.274, 637.979 827.799, 630.359 821.324, 622.738 814.849, 615.118 808.374, 607.497 801.898, 599.877 795.423, 592.256 788.948, 584.636 782.473, 577.015 775.998, 569.395 769.523, 561.774 763.047, 554.154 756.572, 546.533 750.097, 538.913 743.622, 531.292 737.147, 523.671 730.672, 516.051 724.197, 508.430 717.721, 500.810 711.246, 493.189 704.771, 485.569 698.296, 477.948 691.821, 470.328 685.346, 462.707 678.870, 455.087 672.395, 447.466 665.920, 439.846 659.445, 432.225 652.970, 424.605 646.495, 416.984 640.020, 409.364 633.544, 401.743 628.854, 396.224 638.015, 392.212 647.175, 388.201 649.727, 387.083 658.887, 383.072 668.047, 379.061 677.207, 375.050 686.368, 371.038 695.528, 367.027 704.688, 363.016 713.848, 359.004 723.008, 354.993 732.169, 350.982 741.329, 346.970 750.489, 342.959 759.649, 338.948 768.809, 334.936 777.970, 330.925 787.130, 326.914 796.290, 322.903 805.450, 318.891 814.610, 314.880 823.771, 310.869 832.931, 306.857 842.091, 302.846 851.251, 298.835 860.411, 294.823 869.572, 290.812 878.732, 286.801 887.892, 282.789 897.052, 278.778 906.213, 274.767 915.373, 270.756 924.533, 266.744 933.693, 262.733 942.853, 258.722 952.014, 254.710 961.174, 250.699 970.334, 246.688 979.494, 242.676 988.654, 238.665 997.815, 234.654 1006.975, 230.642 1016.135, 226.631 1025.295, 222.620 1034.455, 218.609 1043.616, 214.597 1052.776, 210.586 1061.936, 206.575 1071.096, 202.563 1080.256, 198.552 1089.417, 194.541 1098.577, 190.529 1107.737, 186.518 1116.897, 182.507 1124.841, 179.028 1131.316, 186.649 1137.791, 194.269 1144.266, 201.890 1150.742, 209.510 1157.217, 217.131 1163.692, 224.751 1170.167, 232.372 1176.642, 239.992 1183.117, 247.613 1189.593, 255.233 1196.068, 262.854 1202.543, 270.474 1209.018, 278.095 1215.493, 285.715 1221.968, 293.336 1228.444, 300.957 1234.919, 308.577 1241.394, 316.198 1247.869, 323.818 1254.344, 331.439 1260.819, 339.059 1267.294, 346.680 1273.770, 354.300 1280.245, 361.921 1286.720, 369.541 1293.195, 377.162 1299.670, 384.782 1306.145, 392.403 1312.621, 400.023 1319.096, 407.644 1325.571, 415.264 1332.046, 422.885 1338.521, 430.505 1344.996, 438.126 1351.472, 445.746 1357.947, 453.367 1364.422, 460.987 1370.897, 468.608 1377.372, 476.229 1383.847, 483.849 1390.323, 491.470 1396.798, 499.090 1403.273, 506.711 1406.516, 510.527 1412.991, 518.148 1419.466, 525.768 1425.941, 533.389 1427.388, 535.092 " />
            <path fill="none" stroke-width="3.0" stroke-linecap="butt" stroke-opacity="1.0" stroke="rgb(255, 0, 0)" stroke-linejoin="round" d=" M 931.402, 752.287 931.402, 742.287 931.402, 732.287 931.402, 722.287 931.402, 718.583 " />
            <path fill="none" stroke-width="3.0" stroke-linecap="butt" stroke-opacity="1.0" stroke="rgb(255, 0, 0)" stroke-linejoin="round" d=" M 628.854, 362.519 628.854, 372.519 628.854, 382.519 628.854, 392.519 628.854, 396.224 " />
            <path fill="none" stroke-width="3.0" stroke-linecap="butt" stroke-opacity="1.0" stroke="rgb(255, 0, 0)" stroke-linejoin="round" d=" M 1124.841, 179.028 1124.841, 169.028 1124.841, 159.028 1124.841, 149.028 1124.841, 145.324 " />
        </g>
    </g>
    <g id="ViewLayer_LineSet 3" xmlns:inkscape="http://www.inkscape.org/namespaces/inkscape" inkscape:groupmode="lineset" inkscape:label="ViewLayer_LineSet 3">
        <g xmlns:inkscape="http://www.inkscape.org/namespaces/inkscape" inkscape:groupmode="layer" id="strokes" inkscape:label="strokes">
            <path fill="none" stroke-width="3.0" stroke-linecap="butt" stroke-opacity="1.0" stroke="rgb(0, 0, 0)" stroke-linejoin="round" d=" M 1427.388, 535.092 1427.388, 525.092 1427.388, 515.092 1427.388, 505.092 1427.388, 501.387 " />
            <path fill="none" stroke-width="3.0" stroke-linecap="butt" stroke-opacity="1.0" stroke="rgb(0, 0, 0)" stroke-linejoin="round" d=" M 1427.388, 535.092 1418.228, 539.103 1409.068, 543.114 1399.908, 547.126 1390.747, 551.137 1381.587, 555.148 1372.427, 559.160 1363.267, 563.171 1354.107, 567.182 1344.946, 571.193 1335.786, 575.205 1326.626, 579.216 1317.466, 583.227 1308.306, 587.239 1299.145, 591.250 1289.985, 595.261 1280.825, 599.273 1271.665, 603.284 1262.505, 607.295 1253.344, 611.307 1244.184, 615.318 1235.024, 619.329 1225.864, 623.340 1216.703, 627.352 1207.543, 631.363 1198.383, 635.374 1189.223, 639.386 1180.063, 643.397 1170.902, 647.408 1161.742, 651.420 1152.582, 655.431 1143.422, 659.442 1134.262, 663.454 1125.101, 667.465 1115.941, 671.476 1106.781, 675.487 1097.621, 679.499 1088.461, 683.510 1079.300, 687.521 1070.140, 691.533 1060.980, 695.544 1051.820, 699.555 1042.659, 703.567 1033.499, 707.578 1024.339, 711.589 1015.179, 715.601 1006.019, 719.612 996.858, 723.623 987.698, 727.634 978.538, 731.646 969.378, 735.657 960.218, 739.668 951.057, 743.680 941.897, 747.691 931.402, 752.287 924.926, 744.667 918.451, 737.046 911.976, 729.426 905.501, 721.805 899.026, 714.185 892.551, 706.564 886.076, 698.943 879.600, 691.323 873.125, 683.702 866.650, 676.082 860.175, 668.461 853.700, 660.841 847.225, 653.220 840.749, 645.600 834.274, 637.979 827.799, 630.359 821.324, 622.738 814.849, 615.118 808.374, 607.497 801.898, 599.877 795.423, 592.256 788.948, 584.636 782.473, 577.015 775.998, 569.395 769.523, 561.774 763.047, 554.154 756.572, 546.533 750.097, 538.913 743.622, 531.292 737.147, 523.671 730.672, 516.051 724.197, 508.430 717.721, 500.810 711.246, 493.189 704.771, 485.569 698.296, 477.948 691.821, 470.328 685.346, 462.707 678.870, 455.087 672.395, 447.466 665.920, 439.846 659.445, 432.225 652.970, 424.605 646.495, 416.984 640.020, 409.364 633.544, 401.743 628.854, 396.224 638.015, 392.212 647.175, 388.201 649.727, 387.083 658.887, 383.072 668.047, 379.061 677.207, 375.050 686.368, 371.038 695.528, 367.027 704.688, 363.016 713.848, 359.004 723.008, 354.993 732.169, 350.982 741.329, 346.970 750.489, 342.959 759.649, 338.948 768.809, 334.936 777.970, 330.925 787.130, 326.914 796.290, 322.903 805.450, 318.891 814.610, 314.880 823.771, 310.869 832.931, 306.857 842.091, 302.846 851.251, 298.835 860.411, 294.823 869.572, 290.812 878.732, 286.801 887.892, 282.789 897.052, 278.778 906.213, 274.767 915.373, 270.756 924.533, 266.744 933.693, 262.733 942.853, 258.722 952.014, 254.710 961.174, 250.699 970.334, 246.688 979.494, 242.676 988.654, 238.665 997.815, 234.654 1006.975, 230.642 1016.135, 226.631 1025.295, 222.620 1034.455, 218.609 1043.616, 214.597 1052.776, 210.586 1061.936, 206.575 1071.096, 202.563 1080.256, 198.552 1089.417, 194.541 1098.577, 190.529 1107.737, 186.518 1116.897, 182.507 1124.841, 179.028 1131.316, 186.649 1137.791, 194.269 1144.266, 201.890 1150.742, 209.510 1157.217, 217.131 1163.692, 224.751 1170.167, 232.372 1176.642, 239.992 1183.117, 247.613 1189.593, 255.233 1196.068, 262.854 1202.543, 270.474 1209.018, 278.095 1215.493, 285.715 1221.968, 293.336 1228.444, 300.957 1234.919, 308.577 1241.394, 316.198 1247.869, 323.818 1254.344, 331.439 1260.819, 339.059 1267.294, 346.680 1273.770, 354.300 1280.245, 361.921 1286.720, 369.541 1293.195, 377.162 1299.670, 384.782 1306.145, 392.403 1312.621, 400.023 1319.096, 407.644 1325.571, 415.264 1332.046, 422.885 1338.521, 430.505 1344.996, 438.126 1351.472, 445.746 1357.947, 453.367 1364.422, 460.987 1370.897, 468.608 1377.372, 476.229 1383.847, 483.849 1390.323, 491.470 1396.798, 499.090 1403.273, 506.711 1406.516, 510.527 1412.991, 518.148 1419.466, 525.768 1425.941, 533.389 1427.388, 535.092 " />
            <path fill="none" stroke-width="3.0" stroke-linecap="butt" stroke-opacity="1.0" stroke="rgb(0, 0, 0)" stroke-linejoin="round" d=" M 931.402, 752.287 931.402, 742.287 931.402, 732.287 931.402, 722.287 931.402, 718.583 " />
            <path fill="none" stroke-width="3.0" stroke-linecap="butt" stroke-opacity="1.0" stroke="rgb(0, 0, 0)" stroke-linejoin="round" d=" M 628.854, 362.519 628.854, 372.519 628.854, 382.519 628.854, 392.519 628.854, 396.224 " />
            <path fill="none" stroke-width="3.0" stroke-linecap="butt" stroke-opacity="1.0" stroke="rgb(0, 0, 0)" stroke-linejoin="round" d=" M 1124.841, 179.028 1124.841, 169.028 1124.841, 159.028 1124.841, 149.028 1124.841, 145.324 " />
            <path fill="none" stroke-width="3.0" stroke-linecap="butt" stroke-opacity="1.0" stroke="rgb(0, 0, 0)" stroke-linejoin="round" d=" M 1205.561, 487.651 1205.561, 497.651 1205.561, 507.651 1205.561, 517.651 1205.561, 521.355 1196.020, 518.360 1186.479, 515.365 1176.938, 512.370 1167.397, 509.375 1157.856, 506.381 1149.657, 503.807 1140.116, 500.812 1130.575, 497.817 1125.887, 496.346 1116.346, 493.351 1106.805, 490.356 1097.264, 487.361 1087.723, 484.366 1078.182, 481.371 1068.641, 478.376 1067.177, 477.917 1057.636, 474.922 1048.095, 471.927 1038.554, 468.932 1029.013, 465.937 1028.121, 465.658 1018.580, 462.663 1009.039, 459.668 999.498, 456.673 989.957, 453.678 980.416, 450.683 970.875, 447.688 961.334, 444.694 951.793, 441.699 942.252, 438.704 932.711, 435.709 923.170, 432.714 913.629, 429.719 906.586, 427.508 897.045, 424.513 895.964, 424.174 886.423, 421.179 876.882, 418.184 867.341, 415.189 857.800, 412.195 850.682, 409.960 850.682, 399.960 850.682, 389.960 850.682, 379.960 850.682, 376.256 " />
            <path fill="none" stroke-width="3.0" stroke-linecap="butt" stroke-opacity="1.0" stroke="rgb(0, 0, 0)" stroke-linejoin="round" d=" M 1128.970, 550.641 1128.970, 560.641 1128.970, 570.641 1128.970, 580.641 1128.970, 584.345 1122.495, 576.725 1116.020, 569.104 1109.545, 561.484 1103.070, 553.863 1097.254, 547.019 1090.779, 539.399 1084.304, 531.778 1077.829, 524.158 1075.166, 521.024 1068.691, 513.403 1062.215, 505.783 1055.740, 498.162 1049.265, 490.542 1042.790, 482.921 1036.315, 475.300 1029.840, 467.680 1028.121, 465.658 1021.646, 458.037 1015.171, 450.417 1008.696, 442.796 1002.221, 435.176 995.746, 427.555 989.066, 419.694 982.591, 412.073 976.116, 404.453 969.640, 396.832 963.165, 389.212 958.988, 384.296 952.513, 376.675 946.038, 369.055 939.563, 361.434 939.332, 361.163 932.857, 353.542 927.272, 346.970 927.272, 336.970 927.272, 326.970 927.272, 316.970 927.272, 313.265 " />
            <path fill="none" stroke-width="3.0" stroke-linecap="butt" stroke-opacity="1.0" stroke="rgb(0, 0, 0)" stroke-linejoin="round" d=" M 330.437, 445.477 339.597, 441.466 348.757, 437.455 357.917, 433.443 367.077, 429.432 376.238, 425.421 385.398, 421.409 394.558, 417.398 403.718, 413.387 412.878, 409.376 422.039, 405.364 431.199, 401.353 440.359, 397.342 449.519, 393.330 458.679, 389.319 467.840, 385.308 477.000, 381.296 486.160, 377.285 495.320, 373.274 504.480, 369.263 513.641, 365.251 522.801, 361.240 531.961, 357.229 541.121, 353.217 550.281, 349.206 559.442, 345.195 568.602, 341.183 577.762, 337.172 586.922, 333.161 596.083, 329.149 605.243, 325.138 614.403, 321.127 623.563, 317.116 632.723, 313.104 641.884, 309.093 651.044, 305.082 660.204, 301.070 669.364, 297.059 678.524, 293.048 687.685, 289.036 696.845, 285.025 706.005, 281.014 715.165, 277.002 724.326, 272.991 733.486, 268.980 742.646, 264.969 751.806, 260.957 760.966, 256.946 770.127, 252.935 779.287, 248.923 788.447, 244.912 797.607, 240.901 806.767, 236.889 815.928, 232.878 825.088, 228.867 834.248, 224.855 843.408, 220.844 852.568, 216.833 861.729, 212.822 870.889, 208.810 880.049, 204.799 889.209, 200.788 898.369, 196.776 907.530, 192.765 916.690, 188.754 925.850, 184.742 935.010, 180.731 944.170, 176.720 953.331, 172.708 962.491, 168.697 971.651, 164.686 980.811, 160.674 989.971, 156.663 999.132, 152.652 1008.292, 148.641 1017.452, 144.629 1026.612, 140.618 1035.773, 136.607 1044.933, 132.595 1054.093, 128.584 1063.253, 124.573 1072.413, 120.561 1081.574, 116.550 1090.734, 112.539 1099.894, 108.528 1109.054, 104.516 1118.214, 100.505 1127.375, 96.494 1136.535, 92.482 1145.695, 88.471 1157.081, 83.485 " />
            <path fill="none" stroke-width="3.0" stroke-linecap="butt" stroke-opacity="1.0" stroke="rgb(0, 0, 0)" stroke-linejoin="round" d=" M 1157.081, 49.781 1157.081, 59.781 1157.081, 69.781 1157.081, 79.781 1157.081, 83.485 1163.556, 91.106 1170.031, 98.726 1176.506, 106.347 1182.982, 113.967 1189.457, 121.588 1195.932, 129.208 1202.407, 136.829 1208.882, 144.449 1215.357, 152.070 1221.833, 159.690 1228.308, 167.311 1234.783, 174.931 1241.258, 182.552 1247.733, 190.172 1254.208, 197.793 1260.683, 205.413 1267.159, 213.034 1273.634, 220.654 1280.109, 228.275 1286.584, 235.895 1293.059, 243.516 1299.534, 251.136 1306.010, 258.757 1312.485, 266.378 1318.960, 273.998 1325.435, 281.619 1331.910, 289.239 1338.385, 296.860 1344.860, 304.480 1351.336, 312.101 1357.811, 319.721 1364.286, 327.342 1370.761, 334.962 1377.236, 342.583 1383.711, 350.203 1390.187, 357.824 1396.662, 365.444 1403.137, 373.065 1409.612, 380.685 1416.087, 388.306 1422.562, 395.926 1429.038, 403.547 1435.513, 411.167 1441.988, 418.788 1448.463, 426.408 1454.938, 434.029 1461.413, 441.650 1467.889, 449.270 1474.364, 456.891 1480.839, 464.511 1487.314, 472.132 1493.789, 479.752 1500.264, 487.373 1506.740, 494.993 1513.215, 502.614 1519.690, 510.234 1526.165, 517.855 1532.640, 525.475 1539.115, 533.096 1545.590, 540.716 1552.066, 548.337 1558.541, 555.957 1565.016, 563.578 1571.491, 571.198 1577.966, 578.819 1584.441, 586.439 1590.917, 594.060 1597.392, 601.680 1603.867, 609.301 1610.342, 616.921 1616.817, 624.542 1623.292, 632.163 1629.767, 639.783 1636.243, 647.404 1642.718, 655.024 1649.193, 662.645 1655.668, 670.265 1661.326, 676.924 " />
            <path fill="none" stroke-width="3.0" stroke-linecap="butt" stroke-opacity="1.0" stroke="rgb(0, 0, 0)" stroke-linejoin="round" d=" M 1160.764, 469.594 1160.663, 460.242 1159.285, 450.941 1156.644, 441.783 1152.766, 432.854 1147.687, 424.242 1141.643, 416.274 1141.456, 416.028 1134.582, 408.765 1134.134, 408.292 1126.556, 401.767 1125.791, 401.108 1117.625, 395.336 1116.508, 394.547 1107.857, 389.530 1106.373, 388.670 1097.328, 384.404 1095.484, 383.534 1086.126, 380.010 1083.947, 379.190 1074.345, 376.397 1071.873, 375.678 1062.089, 373.607 1059.377, 373.032 1049.469, 371.675 1046.579, 371.279 1036.601, 370.630 1033.605, 370.435 1023.605, 370.491 1020.577, 370.508 1010.606, 371.269 1007.622, 371.497 997.731, 372.966 994.864, 373.392 985.106, 375.577 982.427, 376.177 981.077, 376.587 971.509, 379.495 970.430, 379.823 961.116, 383.464 958.987, 384.296 958.986, 384.297 949.999, 388.681 948.212, 389.552 939.632, 394.688 938.206, 395.542 930.356, 401.265 929.066, 402.206 921.591, 408.849 920.879, 409.482 914.128, 416.859 913.726, 417.298 907.826, 425.372 907.674, 425.581 906.586, 427.508 902.782, 434.249 899.097, 443.220 896.655, 452.407 895.479, 461.721 895.580, 471.074 896.958, 480.374 899.598, 489.532 903.477, 498.461 908.556, 507.074 914.600, 515.041 914.787, 515.288 921.661, 522.550 922.109, 523.023 929.687, 529.548 930.451, 530.207 938.618, 535.979 939.735, 536.769 948.386, 541.785 949.870, 542.646 958.914, 546.911 960.758, 547.781 970.117, 551.305 972.295, 552.126 981.897, 554.918 984.370, 555.638 994.153, 557.708 996.866, 558.283 1006.773, 559.640 1009.663, 560.036 1019.642, 560.685 1022.638, 560.880 1032.638, 560.825 1035.666, 560.808 1045.637, 560.047 1048.621, 559.819 1058.512, 558.349 1061.378, 557.923 1071.137, 555.738 1073.816, 555.138 1083.383, 552.231 1085.813, 551.492 1095.126, 547.851 1097.254, 547.019 1097.254, 547.019 1106.242, 542.635 1108.030, 541.763 1116.611, 536.627 1116.910, 536.448 1118.037, 535.774 1126.117, 529.882 1127.177, 529.109 1134.652, 522.466 1135.363, 521.834 1142.115, 514.457 1142.517, 514.017 1148.417, 505.943 1148.569, 505.735 1149.657, 503.807 1153.461, 497.066 1157.146, 488.095 1159.588, 478.909 1160.279, 473.437 1160.764, 469.594 1160.764, 459.594 1160.764, 449.594 1160.764, 439.594 1160.764, 435.890 " />
            <path fill="none" stroke-width="3.0" stroke-linecap="butt" stroke-opacity="1.0" stroke="rgb(0, 0, 0)" stroke-linejoin="round" d=" M 1095.484, 349.830 1086.126, 346.306 1083.947, 345.485 1074.345, 342.693 1071.873, 341.973 1062.089, 339.902 1059.377, 339.328 1049.469, 337.971 1046.579, 337.575 1036.601, 336.925 1033.605, 336.730 1023.605, 336.786 1020.577, 336.803 1010.606, 337.564 1007.622, 337.792 997.731, 339.262 994.864, 339.688 985.106, 341.873 982.427, 342.472 972.859, 345.380 970.430, 346.119 " />
            <path fill="none" stroke-width="3.0" stroke-linecap="butt" stroke-opacity="1.0" stroke="rgb(0, 0, 0)" stroke-linejoin="round" d=" M 1134.134, 374.587 1126.556, 368.063 1125.791, 367.404 1117.625, 361.632 1116.508, 360.842 " />
            <path fill="none" stroke-width="3.0" stroke-linecap="butt" stroke-opacity="1.0" stroke="rgb(0, 0, 0)" stroke-linejoin="round" d=" M 1147.687, 390.537 1141.643, 382.570 1141.456, 382.323 " />
            <path fill="none" stroke-width="3.0" stroke-linecap="butt" stroke-opacity="1.0" stroke="rgb(0, 0, 0)" stroke-linejoin="round" d=" M 1156.644, 408.078 1152.766, 399.150 " />
            <path fill="none" stroke-width="3.0" stroke-linecap="butt" stroke-opacity="1.0" stroke="rgb(0, 0, 0)" stroke-linejoin="round" d=" M 1159.588, 445.204 1157.146, 454.391 1153.461, 463.362 " />
            <path fill="none" stroke-width="3.0" stroke-linecap="butt" stroke-opacity="1.0" stroke="rgb(0, 0, 0)" stroke-linejoin="round" d=" M 1148.569, 472.030 1142.669, 480.104 1142.517, 480.312 1135.766, 487.690 1135.363, 488.129 1127.889, 494.772 1127.177, 495.405 " />
            <path fill="none" stroke-width="3.0" stroke-linecap="butt" stroke-opacity="1.0" stroke="rgb(0, 0, 0)" stroke-linejoin="round" d=" M 1108.030, 508.059 1099.043, 512.443 1097.254, 513.315 1097.254, 513.315 " />
            <path fill="none" stroke-width="3.0" stroke-linecap="butt" stroke-opacity="1.0" stroke="rgb(0, 0, 0)" stroke-linejoin="round" d=" M 1085.813, 517.788 1076.245, 520.696 1075.166, 521.024 1073.816, 521.434 " />
            <path fill="none" stroke-width="3.0" stroke-linecap="butt" stroke-opacity="1.0" stroke="rgb(0, 0, 0)" stroke-linejoin="round" d=" M 1035.666, 527.103 1025.666, 527.159 1022.638, 527.176 1012.659, 526.527 1009.663, 526.332 999.756, 524.974 996.866, 524.578 " />
            <path fill="none" stroke-width="3.0" stroke-linecap="butt" stroke-opacity="1.0" stroke="rgb(0, 0, 0)" stroke-linejoin="round" d=" M 972.295, 518.421 962.937, 514.897 960.758, 514.077 951.714, 509.811 949.870, 508.941 941.219, 503.925 939.735, 503.064 931.569, 497.292 930.451, 496.502 922.873, 489.978 922.109, 489.319 " />
            <path fill="none" stroke-width="3.0" stroke-linecap="butt" stroke-opacity="1.0" stroke="rgb(0, 0, 0)" stroke-linejoin="round" d=" M 914.787, 481.583 908.743, 473.616 908.556, 473.369 " />
            <path fill="none" stroke-width="3.0" stroke-linecap="butt" stroke-opacity="1.0" stroke="rgb(0, 0, 0)" stroke-linejoin="round" d=" M 895.479, 428.017 895.479, 438.017 895.479, 448.017 895.479, 458.017 895.479, 461.721 " />
            <path fill="none" stroke-width="3.0" stroke-linecap="butt" stroke-opacity="1.0" stroke="rgb(0, 0, 0)" stroke-linejoin="round" d=" M 958.988, 350.591 950.000, 354.976 948.212, 355.848 939.632, 360.984 939.332, 361.163 938.206, 361.837 930.126, 367.729 929.066, 368.502 " />
            <path fill="none" stroke-width="3.0" stroke-linecap="butt" stroke-opacity="1.0" stroke="rgb(0, 0, 0)" stroke-linejoin="round" d=" M 906.586, 393.804 916.127, 396.799 925.668, 399.794 930.356, 401.265 " />
        </g>
    </g>
</svg>
