<?xml version="1.0" encoding="utf-8" standalone="no"?>
<!DOCTYPE svg PUBLIC "-//W3C//DTD SVG 1.1//EN"
  "http://www.w3.org/Graphics/SVG/1.1/DTD/svg11.dtd">
<svg xmlns:xlink="http://www.w3.org/1999/xlink" width="720pt" height="360pt" viewBox="0 0 720 360" xmlns="http://www.w3.org/2000/svg" version="1.1">
 <metadata>
  <rdf:RDF xmlns:dc="http://purl.org/dc/elements/1.1/" xmlns:cc="http://creativecommons.org/ns#" xmlns:rdf="http://www.w3.org/1999/02/22-rdf-syntax-ns#">
   <cc:Work>
    <dc:type rdf:resource="http://purl.org/dc/dcmitype/StillImage"/>
    <dc:date>2024-01-13T16:44:12.060003</dc:date>
    <dc:format>image/svg+xml</dc:format>
    <dc:creator>
     <cc:Agent>
      <dc:title>Matplotlib v3.8.0, https://matplotlib.org/</dc:title>
     </cc:Agent>
    </dc:creator>
   </cc:Work>
  </rdf:RDF>
 </metadata>
 <defs>
  <style type="text/css">*{stroke-linejoin: round; stroke-linecap: butt}</style>
 </defs>
 <g id="figure_1">
  <g id="patch_1">
   <path d="M 0 360 
L 720 360 
L 720 0 
L 0 0 
z
" style="fill: #ffffff"/>
  </g>
  <g id="axes_1">
   <g id="patch_2">
    <path d="M 31.08 328.92 
L 354.82 328.92 
L 354.82 26.08 
L 31.08 26.08 
z
" style="fill: #ffffff"/>
   </g>
   <g id="matplotlib.axis_1">
    <g id="xtick_1">
     <g id="line2d_1">
      <path d="M 31.08 328.92 
L 31.08 26.08 
" clip-path="url(#p84e76fe549)" style="fill: none; stroke: #d3d3d3; stroke-width: 0.8; stroke-linecap: square"/>
     </g>
     <g id="line2d_2">
      <defs>
       <path id="m293825b10d" d="M 0 0 
L 0 3.5 
" style="stroke: #000000; stroke-width: 0.8"/>
      </defs>
      <g>
       <use xlink:href="#m293825b10d" x="31.08" y="328.92" style="stroke: #000000; stroke-width: 0.8"/>
      </g>
     </g>
    </g>
    <g id="xtick_2">
     <g id="line2d_3">
      <path d="M 95.828 328.92 
L 95.828 26.08 
" clip-path="url(#p84e76fe549)" style="fill: none; stroke: #d3d3d3; stroke-width: 0.8; stroke-linecap: square"/>
     </g>
     <g id="line2d_4">
      <g>
       <use xlink:href="#m293825b10d" x="95.828" y="328.92" style="stroke: #000000; stroke-width: 0.8"/>
      </g>
     </g>
    </g>
    <g id="xtick_3">
     <g id="line2d_5">
      <path d="M 160.576 328.92 
L 160.576 26.08 
" clip-path="url(#p84e76fe549)" style="fill: none; stroke: #d3d3d3; stroke-width: 0.8; stroke-linecap: square"/>
     </g>
     <g id="line2d_6">
      <g>
       <use xlink:href="#m293825b10d" x="160.576" y="328.92" style="stroke: #000000; stroke-width: 0.8"/>
      </g>
     </g>
    </g>
    <g id="xtick_4">
     <g id="line2d_7">
      <path d="M 225.324 328.92 
L 225.324 26.08 
" clip-path="url(#p84e76fe549)" style="fill: none; stroke: #d3d3d3; stroke-width: 0.8; stroke-linecap: square"/>
     </g>
     <g id="line2d_8">
      <g>
       <use xlink:href="#m293825b10d" x="225.324" y="328.92" style="stroke: #000000; stroke-width: 0.8"/>
      </g>
     </g>
    </g>
    <g id="xtick_5">
     <g id="line2d_9">
      <path d="M 290.072 328.92 
L 290.072 26.08 
" clip-path="url(#p84e76fe549)" style="fill: none; stroke: #d3d3d3; stroke-width: 0.8; stroke-linecap: square"/>
     </g>
     <g id="line2d_10">
      <g>
       <use xlink:href="#m293825b10d" x="290.072" y="328.92" style="stroke: #000000; stroke-width: 0.8"/>
      </g>
     </g>
    </g>
    <g id="xtick_6">
     <g id="line2d_11">
      <path d="M 354.82 328.92 
L 354.82 26.08 
" clip-path="url(#p84e76fe549)" style="fill: none; stroke: #d3d3d3; stroke-width: 0.8; stroke-linecap: square"/>
     </g>
     <g id="line2d_12">
      <g>
       <use xlink:href="#m293825b10d" x="354.82" y="328.92" style="stroke: #000000; stroke-width: 0.8"/>
      </g>
     </g>
    </g>
    <g id="text_1">
     <!-- t -->
     <g transform="translate(190.989844 347.518438) scale(0.1 -0.1)">
      <defs>
       <path id="DejaVuSans-74" d="M 1172 4494 
L 1172 3500 
L 2356 3500 
L 2356 3053 
L 1172 3053 
L 1172 1153 
Q 1172 725 1289 603 
Q 1406 481 1766 481 
L 2356 481 
L 2356 0 
L 1766 0 
Q 1100 0 847 248 
Q 594 497 594 1153 
L 594 3053 
L 172 3053 
L 172 3500 
L 594 3500 
L 594 4494 
L 1172 4494 
z
" transform="scale(0.015625)"/>
      </defs>
      <use xlink:href="#DejaVuSans-74"/>
     </g>
    </g>
   </g>
   <g id="matplotlib.axis_2">
    <g id="ytick_1">
     <g id="line2d_13">
      <path d="M 31.08 298.636 
L 354.82 298.636 
" clip-path="url(#p84e76fe549)" style="fill: none; stroke: #d3d3d3; stroke-width: 0.8; stroke-linecap: square"/>
     </g>
     <g id="line2d_14">
      <defs>
       <path id="m738aaed9f0" d="M 0 0 
L -3.5 0 
" style="stroke: #000000; stroke-width: 0.8"/>
      </defs>
      <g>
       <use xlink:href="#m738aaed9f0" x="31.08" y="298.636" style="stroke: #000000; stroke-width: 0.8"/>
      </g>
     </g>
    </g>
    <g id="ytick_2">
     <g id="line2d_15">
      <path d="M 31.08 238.068 
L 354.82 238.068 
" clip-path="url(#p84e76fe549)" style="fill: none; stroke: #d3d3d3; stroke-width: 0.8; stroke-linecap: square"/>
     </g>
     <g id="line2d_16">
      <g>
       <use xlink:href="#m738aaed9f0" x="31.08" y="238.068" style="stroke: #000000; stroke-width: 0.8"/>
      </g>
     </g>
    </g>
    <g id="ytick_3">
     <g id="line2d_17">
      <path d="M 31.08 177.5 
L 354.82 177.5 
" clip-path="url(#p84e76fe549)" style="fill: none; stroke: #d3d3d3; stroke-width: 0.8; stroke-linecap: square"/>
     </g>
     <g id="line2d_18">
      <g>
       <use xlink:href="#m738aaed9f0" x="31.08" y="177.5" style="stroke: #000000; stroke-width: 0.8"/>
      </g>
     </g>
    </g>
    <g id="ytick_4">
     <g id="line2d_19">
      <path d="M 31.08 116.932 
L 354.82 116.932 
" clip-path="url(#p84e76fe549)" style="fill: none; stroke: #d3d3d3; stroke-width: 0.8; stroke-linecap: square"/>
     </g>
     <g id="line2d_20">
      <g>
       <use xlink:href="#m738aaed9f0" x="31.08" y="116.932" style="stroke: #000000; stroke-width: 0.8"/>
      </g>
     </g>
    </g>
    <g id="ytick_5">
     <g id="line2d_21">
      <path d="M 31.08 56.364 
L 354.82 56.364 
" clip-path="url(#p84e76fe549)" style="fill: none; stroke: #d3d3d3; stroke-width: 0.8; stroke-linecap: square"/>
     </g>
     <g id="line2d_22">
      <g>
       <use xlink:href="#m738aaed9f0" x="31.08" y="56.364" style="stroke: #000000; stroke-width: 0.8"/>
      </g>
     </g>
    </g>
    <g id="text_2">
     <!-- s(t) -->
     <g transform="translate(18.000312 185.966406) rotate(-90) scale(0.1 -0.1)">
      <defs>
       <path id="DejaVuSans-73" d="M 2834 3397 
L 2834 2853 
Q 2591 2978 2328 3040 
Q 2066 3103 1784 3103 
Q 1356 3103 1142 2972 
Q 928 2841 928 2578 
Q 928 2378 1081 2264 
Q 1234 2150 1697 2047 
L 1894 2003 
Q 2506 1872 2764 1633 
Q 3022 1394 3022 966 
Q 3022 478 2636 193 
Q 2250 -91 1575 -91 
Q 1294 -91 989 -36 
Q 684 19 347 128 
L 347 722 
Q 666 556 975 473 
Q 1284 391 1588 391 
Q 1994 391 2212 530 
Q 2431 669 2431 922 
Q 2431 1156 2273 1281 
Q 2116 1406 1581 1522 
L 1381 1569 
Q 847 1681 609 1914 
Q 372 2147 372 2553 
Q 372 3047 722 3315 
Q 1072 3584 1716 3584 
Q 2034 3584 2315 3537 
Q 2597 3491 2834 3397 
z
" transform="scale(0.015625)"/>
       <path id="DejaVuSans-28" d="M 1984 4856 
Q 1566 4138 1362 3434 
Q 1159 2731 1159 2009 
Q 1159 1288 1364 580 
Q 1569 -128 1984 -844 
L 1484 -844 
Q 1016 -109 783 600 
Q 550 1309 550 2009 
Q 550 2706 781 3412 
Q 1013 4119 1484 4856 
L 1984 4856 
z
" transform="scale(0.015625)"/>
       <path id="DejaVuSans-29" d="M 513 4856 
L 1013 4856 
Q 1481 4119 1714 3412 
Q 1947 2706 1947 2009 
Q 1947 1309 1714 600 
Q 1481 -109 1013 -844 
L 513 -844 
Q 928 -128 1133 580 
Q 1338 1288 1338 2009 
Q 1338 2731 1133 3434 
Q 928 4138 513 4856 
z
" transform="scale(0.015625)"/>
      </defs>
      <use xlink:href="#DejaVuSans-73"/>
      <use xlink:href="#DejaVuSans-28" x="52.099609"/>
      <use xlink:href="#DejaVuSans-74" x="91.113281"/>
      <use xlink:href="#DejaVuSans-29" x="130.322266"/>
     </g>
    </g>
   </g>
   <g id="line2d_23">
    <path d="M 31.08 177.5 
L 97.453337 177.410522 
L 101.986151 177.007757 
L 103.28124 177.257225 
L 104.252557 177.660198 
L 105.223874 178.27349 
L 106.518964 179.424347 
L 107.814053 180.913489 
L 110.08046 183.97254 
L 111.699322 186.028477 
L 112.670639 186.984608 
L 113.641956 187.600026 
L 114.289501 187.769831 
L 114.937046 187.714852 
L 115.58459 187.411272 
L 116.232135 186.83981 
L 116.87968 185.986571 
L 117.527225 184.843794 
L 118.498542 182.586535 
L 119.469859 179.70478 
L 120.764948 175.01068 
L 122.38381 168.162593 
L 125.297762 155.496124 
L 126.592851 150.928712 
L 127.564168 148.377646 
L 128.211713 147.201781 
L 128.859258 146.504297 
L 129.18303 146.348341 
L 129.506803 146.326994 
L 129.830575 146.444093 
L 130.154347 146.702854 
L 130.801892 147.654932 
L 131.449437 149.195428 
L 132.096982 151.32497 
L 133.068299 155.595389 
L 134.039616 161.072211 
L 135.334705 169.981047 
L 136.953567 182.946469 
L 140.191291 209.694056 
L 141.486381 218.488668 
L 142.457698 223.656606 
L 143.105243 226.269602 
L 143.752787 228.138392 
L 144.400332 229.209668 
L 144.724104 229.433325 
L 145.047877 229.443935 
L 145.371649 229.238897 
L 145.695422 228.816591 
L 146.342966 227.318709 
L 146.990511 224.957521 
L 147.638056 221.756575 
L 148.609373 215.471729 
L 149.58069 207.589447 
L 150.87578 195.072323 
L 152.818414 173.692211 
L 155.408593 145.432036 
L 156.703682 133.63627 
L 157.674999 126.534439 
L 158.646317 121.253717 
L 159.293861 118.854332 
L 159.941406 117.405045 
L 160.265179 117.045609 
L 160.588951 116.932197 
L 160.912723 117.065325 
L 161.236496 117.444387 
L 161.560268 118.067657 
L 162.207813 120.034383 
L 162.855358 122.929776 
L 163.502902 126.701315 
L 164.474219 133.848069 
L 165.769309 145.690163 
L 167.388171 162.996063 
L 170.625895 198.640773 
L 171.920984 210.595466 
L 172.892301 217.930319 
L 173.863618 223.587356 
L 174.511163 226.338741 
L 175.158708 228.235628 
L 175.806253 229.26328 
L 176.130025 229.450994 
L 176.453797 229.423231 
L 176.77757 229.182672 
L 177.101342 228.732952 
L 177.748887 227.225205 
L 178.396432 224.947093 
L 179.043976 221.958845 
L 180.015294 216.305012 
L 181.310383 207.030756 
L 183.253017 190.976995 
L 185.843196 169.787612 
L 187.138286 160.911669 
L 188.109603 155.465317 
L 189.08092 151.228582 
L 189.728465 149.122464 
L 190.37601 147.605596 
L 191.023554 146.676875 
L 191.347327 146.42955 
L 191.671099 146.323654 
L 191.994871 146.355919 
L 192.318644 146.52246 
L 192.966189 147.239937 
L 193.613733 148.433955 
L 194.261278 150.054886 
L 195.232595 153.163488 
L 196.527685 158.247439 
L 201.38427 178.705053 
L 202.67936 182.655039 
L 203.650677 184.8951 
L 204.621994 186.482936 
L 205.269539 187.182645 
L 205.917084 187.607362 
L 206.564628 187.773993 
L 207.212173 187.704378 
L 207.859718 187.424405 
L 208.831035 186.67403 
L 209.802352 185.621756 
L 211.421214 183.491693 
L 213.687621 180.483043 
L 214.98271 179.077335 
L 216.2778 178.027766 
L 217.249117 177.491709 
L 218.220434 177.15991 
L 219.515524 176.987349 
L 221.134385 177.071466 
L 225.343426 177.5 
L 354.852377 177.5 
L 354.852377 177.5 
" clip-path="url(#p84e76fe549)" style="fill: none; stroke: #1f77b4; stroke-width: 1.5; stroke-linecap: square"/>
   </g>
   <g id="patch_3">
    <path d="M 31.08 328.92 
L 31.08 26.08 
" style="fill: none; stroke: #000000; stroke-width: 0.8; stroke-linejoin: miter; stroke-linecap: square"/>
   </g>
   <g id="patch_4">
    <path d="M 354.82 328.92 
L 354.82 26.08 
" style="fill: none; stroke: #000000; stroke-width: 0.8; stroke-linejoin: miter; stroke-linecap: square"/>
   </g>
   <g id="patch_5">
    <path d="M 31.08 328.92 
L 354.82 328.92 
" style="fill: none; stroke: #000000; stroke-width: 0.8; stroke-linejoin: miter; stroke-linecap: square"/>
   </g>
   <g id="patch_6">
    <path d="M 31.08 26.08 
L 354.82 26.08 
" style="fill: none; stroke: #000000; stroke-width: 0.8; stroke-linejoin: miter; stroke-linecap: square"/>
   </g>
   <g id="text_3">
    <!-- Time domain -->
    <g transform="translate(153.891875 20.08) scale(0.12 -0.12)">
     <defs>
      <path id="DejaVuSans-54" d="M -19 4666 
L 3928 4666 
L 3928 4134 
L 2272 4134 
L 2272 0 
L 1638 0 
L 1638 4134 
L -19 4134 
L -19 4666 
z
" transform="scale(0.015625)"/>
      <path id="DejaVuSans-69" d="M 603 3500 
L 1178 3500 
L 1178 0 
L 603 0 
L 603 3500 
z
M 603 4863 
L 1178 4863 
L 1178 4134 
L 603 4134 
L 603 4863 
z
" transform="scale(0.015625)"/>
      <path id="DejaVuSans-6d" d="M 3328 2828 
Q 3544 3216 3844 3400 
Q 4144 3584 4550 3584 
Q 5097 3584 5394 3201 
Q 5691 2819 5691 2113 
L 5691 0 
L 5113 0 
L 5113 2094 
Q 5113 2597 4934 2840 
Q 4756 3084 4391 3084 
Q 3944 3084 3684 2787 
Q 3425 2491 3425 1978 
L 3425 0 
L 2847 0 
L 2847 2094 
Q 2847 2600 2669 2842 
Q 2491 3084 2119 3084 
Q 1678 3084 1418 2786 
Q 1159 2488 1159 1978 
L 1159 0 
L 581 0 
L 581 3500 
L 1159 3500 
L 1159 2956 
Q 1356 3278 1631 3431 
Q 1906 3584 2284 3584 
Q 2666 3584 2933 3390 
Q 3200 3197 3328 2828 
z
" transform="scale(0.015625)"/>
      <path id="DejaVuSans-65" d="M 3597 1894 
L 3597 1613 
L 953 1613 
Q 991 1019 1311 708 
Q 1631 397 2203 397 
Q 2534 397 2845 478 
Q 3156 559 3463 722 
L 3463 178 
Q 3153 47 2828 -22 
Q 2503 -91 2169 -91 
Q 1331 -91 842 396 
Q 353 884 353 1716 
Q 353 2575 817 3079 
Q 1281 3584 2069 3584 
Q 2775 3584 3186 3129 
Q 3597 2675 3597 1894 
z
M 3022 2063 
Q 3016 2534 2758 2815 
Q 2500 3097 2075 3097 
Q 1594 3097 1305 2825 
Q 1016 2553 972 2059 
L 3022 2063 
z
" transform="scale(0.015625)"/>
      <path id="DejaVuSans-20" transform="scale(0.015625)"/>
      <path id="DejaVuSans-64" d="M 2906 2969 
L 2906 4863 
L 3481 4863 
L 3481 0 
L 2906 0 
L 2906 525 
Q 2725 213 2448 61 
Q 2172 -91 1784 -91 
Q 1150 -91 751 415 
Q 353 922 353 1747 
Q 353 2572 751 3078 
Q 1150 3584 1784 3584 
Q 2172 3584 2448 3432 
Q 2725 3281 2906 2969 
z
M 947 1747 
Q 947 1113 1208 752 
Q 1469 391 1925 391 
Q 2381 391 2643 752 
Q 2906 1113 2906 1747 
Q 2906 2381 2643 2742 
Q 2381 3103 1925 3103 
Q 1469 3103 1208 2742 
Q 947 2381 947 1747 
z
" transform="scale(0.015625)"/>
      <path id="DejaVuSans-6f" d="M 1959 3097 
Q 1497 3097 1228 2736 
Q 959 2375 959 1747 
Q 959 1119 1226 758 
Q 1494 397 1959 397 
Q 2419 397 2687 759 
Q 2956 1122 2956 1747 
Q 2956 2369 2687 2733 
Q 2419 3097 1959 3097 
z
M 1959 3584 
Q 2709 3584 3137 3096 
Q 3566 2609 3566 1747 
Q 3566 888 3137 398 
Q 2709 -91 1959 -91 
Q 1206 -91 779 398 
Q 353 888 353 1747 
Q 353 2609 779 3096 
Q 1206 3584 1959 3584 
z
" transform="scale(0.015625)"/>
      <path id="DejaVuSans-61" d="M 2194 1759 
Q 1497 1759 1228 1600 
Q 959 1441 959 1056 
Q 959 750 1161 570 
Q 1363 391 1709 391 
Q 2188 391 2477 730 
Q 2766 1069 2766 1631 
L 2766 1759 
L 2194 1759 
z
M 3341 1997 
L 3341 0 
L 2766 0 
L 2766 531 
Q 2569 213 2275 61 
Q 1981 -91 1556 -91 
Q 1019 -91 701 211 
Q 384 513 384 1019 
Q 384 1609 779 1909 
Q 1175 2209 1959 2209 
L 2766 2209 
L 2766 2266 
Q 2766 2663 2505 2880 
Q 2244 3097 1772 3097 
Q 1472 3097 1187 3025 
Q 903 2953 641 2809 
L 641 3341 
Q 956 3463 1253 3523 
Q 1550 3584 1831 3584 
Q 2591 3584 2966 3190 
Q 3341 2797 3341 1997 
z
" transform="scale(0.015625)"/>
      <path id="DejaVuSans-6e" d="M 3513 2113 
L 3513 0 
L 2938 0 
L 2938 2094 
Q 2938 2591 2744 2837 
Q 2550 3084 2163 3084 
Q 1697 3084 1428 2787 
Q 1159 2491 1159 1978 
L 1159 0 
L 581 0 
L 581 3500 
L 1159 3500 
L 1159 2956 
Q 1366 3272 1645 3428 
Q 1925 3584 2291 3584 
Q 2894 3584 3203 3211 
Q 3513 2838 3513 2113 
z
" transform="scale(0.015625)"/>
     </defs>
     <use xlink:href="#DejaVuSans-54"/>
     <use xlink:href="#DejaVuSans-69" x="57.958984"/>
     <use xlink:href="#DejaVuSans-6d" x="85.742188"/>
     <use xlink:href="#DejaVuSans-65" x="183.154297"/>
     <use xlink:href="#DejaVuSans-20" x="244.677734"/>
     <use xlink:href="#DejaVuSans-64" x="276.464844"/>
     <use xlink:href="#DejaVuSans-6f" x="339.941406"/>
     <use xlink:href="#DejaVuSans-6d" x="401.123047"/>
     <use xlink:href="#DejaVuSans-61" x="498.535156"/>
     <use xlink:href="#DejaVuSans-69" x="559.814453"/>
     <use xlink:href="#DejaVuSans-6e" x="587.597656"/>
    </g>
   </g>
  </g>
  <g id="axes_2">
   <g id="patch_7">
    <path d="M 386.26 328.92 
L 710 328.92 
L 710 26.08 
L 386.26 26.08 
z
" style="fill: #ffffff"/>
   </g>
   <g id="matplotlib.axis_3">
    <g id="xtick_7">
     <g id="line2d_24">
      <path d="M 386.26 328.92 
L 386.26 26.08 
" clip-path="url(#p054a2108eb)" style="fill: none; stroke: #d3d3d3; stroke-width: 0.8; stroke-linecap: square"/>
     </g>
     <g id="line2d_25">
      <g>
       <use xlink:href="#m293825b10d" x="386.26" y="328.92" style="stroke: #000000; stroke-width: 0.8"/>
      </g>
     </g>
    </g>
    <g id="xtick_8">
     <g id="line2d_26">
      <path d="M 426.7275 328.92 
L 426.7275 26.08 
" clip-path="url(#p054a2108eb)" style="fill: none; stroke: #d3d3d3; stroke-width: 0.8; stroke-linecap: square"/>
     </g>
     <g id="line2d_27">
      <g>
       <use xlink:href="#m293825b10d" x="426.7275" y="328.92" style="stroke: #000000; stroke-width: 0.8"/>
      </g>
     </g>
    </g>
    <g id="xtick_9">
     <g id="line2d_28">
      <path d="M 467.195 328.92 
L 467.195 26.08 
" clip-path="url(#p054a2108eb)" style="fill: none; stroke: #d3d3d3; stroke-width: 0.8; stroke-linecap: square"/>
     </g>
     <g id="line2d_29">
      <g>
       <use xlink:href="#m293825b10d" x="467.195" y="328.92" style="stroke: #000000; stroke-width: 0.8"/>
      </g>
     </g>
    </g>
    <g id="xtick_10">
     <g id="line2d_30">
      <path d="M 507.6625 328.92 
L 507.6625 26.08 
" clip-path="url(#p054a2108eb)" style="fill: none; stroke: #d3d3d3; stroke-width: 0.8; stroke-linecap: square"/>
     </g>
     <g id="line2d_31">
      <g>
       <use xlink:href="#m293825b10d" x="507.6625" y="328.92" style="stroke: #000000; stroke-width: 0.8"/>
      </g>
     </g>
    </g>
    <g id="xtick_11">
     <g id="line2d_32">
      <path d="M 548.13 328.92 
L 548.13 26.08 
" clip-path="url(#p054a2108eb)" style="fill: none; stroke: #d3d3d3; stroke-width: 0.8; stroke-linecap: square"/>
     </g>
     <g id="line2d_33">
      <g>
       <use xlink:href="#m293825b10d" x="548.13" y="328.92" style="stroke: #000000; stroke-width: 0.8"/>
      </g>
     </g>
    </g>
    <g id="xtick_12">
     <g id="line2d_34">
      <path d="M 588.5975 328.92 
L 588.5975 26.08 
" clip-path="url(#p054a2108eb)" style="fill: none; stroke: #d3d3d3; stroke-width: 0.8; stroke-linecap: square"/>
     </g>
     <g id="line2d_35">
      <g>
       <use xlink:href="#m293825b10d" x="588.5975" y="328.92" style="stroke: #000000; stroke-width: 0.8"/>
      </g>
     </g>
    </g>
    <g id="xtick_13">
     <g id="line2d_36">
      <path d="M 629.065 328.92 
L 629.065 26.08 
" clip-path="url(#p054a2108eb)" style="fill: none; stroke: #d3d3d3; stroke-width: 0.8; stroke-linecap: square"/>
     </g>
     <g id="line2d_37">
      <g>
       <use xlink:href="#m293825b10d" x="629.065" y="328.92" style="stroke: #000000; stroke-width: 0.8"/>
      </g>
     </g>
    </g>
    <g id="xtick_14">
     <g id="line2d_38">
      <path d="M 669.5325 328.92 
L 669.5325 26.08 
" clip-path="url(#p054a2108eb)" style="fill: none; stroke: #d3d3d3; stroke-width: 0.8; stroke-linecap: square"/>
     </g>
     <g id="line2d_39">
      <g>
       <use xlink:href="#m293825b10d" x="669.5325" y="328.92" style="stroke: #000000; stroke-width: 0.8"/>
      </g>
     </g>
    </g>
    <g id="xtick_15">
     <g id="line2d_40">
      <path d="M 710 328.92 
L 710 26.08 
" clip-path="url(#p054a2108eb)" style="fill: none; stroke: #d3d3d3; stroke-width: 0.8; stroke-linecap: square"/>
     </g>
     <g id="line2d_41">
      <g>
       <use xlink:href="#m293825b10d" x="710" y="328.92" style="stroke: #000000; stroke-width: 0.8"/>
      </g>
     </g>
    </g>
    <g id="text_4">
     <!-- f -->
     <g transform="translate(546.369844 347.518438) scale(0.1 -0.1)">
      <defs>
       <path id="DejaVuSans-66" d="M 2375 4863 
L 2375 4384 
L 1825 4384 
Q 1516 4384 1395 4259 
Q 1275 4134 1275 3809 
L 1275 3500 
L 2222 3500 
L 2222 3053 
L 1275 3053 
L 1275 0 
L 697 0 
L 697 3053 
L 147 3053 
L 147 3500 
L 697 3500 
L 697 3744 
Q 697 4328 969 4595 
Q 1241 4863 1831 4863 
L 2375 4863 
z
" transform="scale(0.015625)"/>
      </defs>
      <use xlink:href="#DejaVuSans-66"/>
     </g>
    </g>
   </g>
   <g id="matplotlib.axis_4">
    <g id="ytick_6">
     <g id="line2d_42">
      <path d="M 386.26 328.92 
L 710 328.92 
" clip-path="url(#p054a2108eb)" style="fill: none; stroke: #d3d3d3; stroke-width: 0.8; stroke-linecap: square"/>
     </g>
     <g id="line2d_43">
      <g>
       <use xlink:href="#m738aaed9f0" x="386.26" y="328.92" style="stroke: #000000; stroke-width: 0.8"/>
      </g>
     </g>
    </g>
    <g id="ytick_7">
     <g id="line2d_44">
      <path d="M 386.26 285.657143 
L 710 285.657143 
" clip-path="url(#p054a2108eb)" style="fill: none; stroke: #d3d3d3; stroke-width: 0.8; stroke-linecap: square"/>
     </g>
     <g id="line2d_45">
      <g>
       <use xlink:href="#m738aaed9f0" x="386.26" y="285.657143" style="stroke: #000000; stroke-width: 0.8"/>
      </g>
     </g>
    </g>
    <g id="ytick_8">
     <g id="line2d_46">
      <path d="M 386.26 242.394286 
L 710 242.394286 
" clip-path="url(#p054a2108eb)" style="fill: none; stroke: #d3d3d3; stroke-width: 0.8; stroke-linecap: square"/>
     </g>
     <g id="line2d_47">
      <g>
       <use xlink:href="#m738aaed9f0" x="386.26" y="242.394286" style="stroke: #000000; stroke-width: 0.8"/>
      </g>
     </g>
    </g>
    <g id="ytick_9">
     <g id="line2d_48">
      <path d="M 386.26 199.131429 
L 710 199.131429 
" clip-path="url(#p054a2108eb)" style="fill: none; stroke: #d3d3d3; stroke-width: 0.8; stroke-linecap: square"/>
     </g>
     <g id="line2d_49">
      <g>
       <use xlink:href="#m738aaed9f0" x="386.26" y="199.131429" style="stroke: #000000; stroke-width: 0.8"/>
      </g>
     </g>
    </g>
    <g id="ytick_10">
     <g id="line2d_50">
      <path d="M 386.26 155.868571 
L 710 155.868571 
" clip-path="url(#p054a2108eb)" style="fill: none; stroke: #d3d3d3; stroke-width: 0.8; stroke-linecap: square"/>
     </g>
     <g id="line2d_51">
      <g>
       <use xlink:href="#m738aaed9f0" x="386.26" y="155.868571" style="stroke: #000000; stroke-width: 0.8"/>
      </g>
     </g>
    </g>
    <g id="ytick_11">
     <g id="line2d_52">
      <path d="M 386.26 112.605714 
L 710 112.605714 
" clip-path="url(#p054a2108eb)" style="fill: none; stroke: #d3d3d3; stroke-width: 0.8; stroke-linecap: square"/>
     </g>
     <g id="line2d_53">
      <g>
       <use xlink:href="#m738aaed9f0" x="386.26" y="112.605714" style="stroke: #000000; stroke-width: 0.8"/>
      </g>
     </g>
    </g>
    <g id="ytick_12">
     <g id="line2d_54">
      <path d="M 386.26 69.342857 
L 710 69.342857 
" clip-path="url(#p054a2108eb)" style="fill: none; stroke: #d3d3d3; stroke-width: 0.8; stroke-linecap: square"/>
     </g>
     <g id="line2d_55">
      <g>
       <use xlink:href="#m738aaed9f0" x="386.26" y="69.342857" style="stroke: #000000; stroke-width: 0.8"/>
      </g>
     </g>
    </g>
    <g id="ytick_13">
     <g id="line2d_56">
      <path d="M 386.26 26.08 
L 710 26.08 
" clip-path="url(#p054a2108eb)" style="fill: none; stroke: #d3d3d3; stroke-width: 0.8; stroke-linecap: square"/>
     </g>
     <g id="line2d_57">
      <g>
       <use xlink:href="#m738aaed9f0" x="386.26" y="26.08" style="stroke: #000000; stroke-width: 0.8"/>
      </g>
     </g>
    </g>
    <g id="text_5">
     <!-- |s| -->
     <g transform="translate(372.902187 183.473437) rotate(-90) scale(0.1 -0.1)">
      <defs>
       <path id="DejaVuSans-7c" d="M 1344 4891 
L 1344 -1509 
L 813 -1509 
L 813 4891 
L 1344 4891 
z
" transform="scale(0.015625)"/>
      </defs>
      <use xlink:href="#DejaVuSans-7c"/>
      <use xlink:href="#DejaVuSans-73" x="33.691406"/>
      <use xlink:href="#DejaVuSans-7c" x="85.791016"/>
     </g>
    </g>
   </g>
   <g id="line2d_58">
    <path d="M 386.26 328.919999 
L 389.4974 328.808498 
L 394.3535 328.351895 
L 398.40025 328.025942 
L 400.8283 328.016601 
L 403.25635 328.229742 
L 405.6844 328.702958 
L 406.49375 328.919424 
L 408.9218 328.112759 
L 412.96855 326.434575 
L 416.20595 325.189512 
L 417.82465 324.769708 
L 419.44335 324.585655 
L 421.06205 324.719756 
L 422.68075 325.257096 
L 423.4901 325.703632 
L 424.29945 326.282696 
L 425.1088 327.004422 
L 426.7275 328.9144 
L 428.3462 326.334685 
L 429.9649 323.001708 
L 431.5836 318.879037 
L 433.2023 313.935123 
L 434.821 308.156741 
L 436.4397 301.55076 
L 438.0584 294.145387 
L 440.48645 281.654287 
L 442.9145 267.744103 
L 446.1519 247.635356 
L 452.6267 206.458854 
L 455.05475 192.412657 
L 456.67345 183.932162 
L 458.29215 176.342608 
L 459.91085 169.786353 
L 461.52955 164.38796 
L 462.3389 162.156206 
L 463.14825 160.250927 
L 463.9576 158.68132 
L 464.76695 157.454959 
L 465.5763 156.577743 
L 466.38565 156.053859 
L 467.195 155.885757 
L 468.00435 156.074127 
L 468.8137 156.617907 
L 469.62305 157.51428 
L 470.4324 158.758705 
L 471.24175 160.344941 
L 472.0511 162.265095 
L 473.6698 167.067651 
L 475.2885 173.072488 
L 476.9072 180.163805 
L 478.5259 188.206986 
L 480.95395 201.72546 
L 484.19135 221.599231 
L 491.4755 267.500403 
L 493.90355 281.348448 
L 496.3316 293.806311 
L 497.9503 301.209232 
L 499.569 307.829954 
L 501.1877 313.640465 
L 502.8064 318.633095 
L 504.4251 322.819269 
L 506.0438 326.227763 
L 507.6625 328.902572 
L 509.2812 326.93954 
L 510.8999 325.551702 
L 512.5186 324.699713 
L 514.1373 324.304836 
L 515.756 324.286519 
L 517.3747 324.564954 
L 518.9934 325.063397 
L 521.42145 326.068634 
L 527.0869 328.608712 
L 527.89625 328.914857 
L 530.3243 328.164848 
L 532.75235 327.670136 
L 535.1804 327.444851 
L 537.60845 327.460907 
L 540.84585 327.768423 
L 546.5113 328.666038 
L 548.13 328.91761 
L 552.17675 328.440243 
L 555.41415 328.259186 
L 559.4609 328.292427 
L 564.317 328.597049 
L 568.36375 328.91863 
L 574.0292 328.603341 
L 578.8853 328.559477 
L 585.3601 328.771793 
L 589.40685 328.886133 
L 596.691 328.69768 
L 603.1658 328.763111 
L 611.2593 328.857334 
L 619.3528 328.773549 
L 654.9642 328.858211 
L 666.2951 328.886899 
L 675.19795 328.873749 
L 688.9569 328.913459 
L 697.85975 328.877228 
L 710.80935 328.91535 
L 710.80935 328.91535 
" clip-path="url(#p054a2108eb)" style="fill: none; stroke: #1f77b4; stroke-width: 1.5; stroke-linecap: square"/>
   </g>
   <g id="patch_8">
    <path d="M 386.26 328.92 
L 386.26 26.08 
" style="fill: none; stroke: #000000; stroke-width: 0.8; stroke-linejoin: miter; stroke-linecap: square"/>
   </g>
   <g id="patch_9">
    <path d="M 710 328.92 
L 710 26.08 
" style="fill: none; stroke: #000000; stroke-width: 0.8; stroke-linejoin: miter; stroke-linecap: square"/>
   </g>
   <g id="patch_10">
    <path d="M 386.26 328.92 
L 710 328.92 
" style="fill: none; stroke: #000000; stroke-width: 0.8; stroke-linejoin: miter; stroke-linecap: square"/>
   </g>
   <g id="patch_11">
    <path d="M 386.26 26.08 
L 710 26.08 
" style="fill: none; stroke: #000000; stroke-width: 0.8; stroke-linejoin: miter; stroke-linecap: square"/>
   </g>
   <g id="text_6">
    <!-- Frequency domain -->
    <g transform="translate(492.756562 20.08) scale(0.12 -0.12)">
     <defs>
      <path id="DejaVuSans-46" d="M 628 4666 
L 3309 4666 
L 3309 4134 
L 1259 4134 
L 1259 2759 
L 3109 2759 
L 3109 2228 
L 1259 2228 
L 1259 0 
L 628 0 
L 628 4666 
z
" transform="scale(0.015625)"/>
      <path id="DejaVuSans-72" d="M 2631 2963 
Q 2534 3019 2420 3045 
Q 2306 3072 2169 3072 
Q 1681 3072 1420 2755 
Q 1159 2438 1159 1844 
L 1159 0 
L 581 0 
L 581 3500 
L 1159 3500 
L 1159 2956 
Q 1341 3275 1631 3429 
Q 1922 3584 2338 3584 
Q 2397 3584 2469 3576 
Q 2541 3569 2628 3553 
L 2631 2963 
z
" transform="scale(0.015625)"/>
      <path id="DejaVuSans-71" d="M 947 1747 
Q 947 1113 1208 752 
Q 1469 391 1925 391 
Q 2381 391 2643 752 
Q 2906 1113 2906 1747 
Q 2906 2381 2643 2742 
Q 2381 3103 1925 3103 
Q 1469 3103 1208 2742 
Q 947 2381 947 1747 
z
M 2906 525 
Q 2725 213 2448 61 
Q 2172 -91 1784 -91 
Q 1150 -91 751 415 
Q 353 922 353 1747 
Q 353 2572 751 3078 
Q 1150 3584 1784 3584 
Q 2172 3584 2448 3432 
Q 2725 3281 2906 2969 
L 2906 3500 
L 3481 3500 
L 3481 -1331 
L 2906 -1331 
L 2906 525 
z
" transform="scale(0.015625)"/>
      <path id="DejaVuSans-75" d="M 544 1381 
L 544 3500 
L 1119 3500 
L 1119 1403 
Q 1119 906 1312 657 
Q 1506 409 1894 409 
Q 2359 409 2629 706 
Q 2900 1003 2900 1516 
L 2900 3500 
L 3475 3500 
L 3475 0 
L 2900 0 
L 2900 538 
Q 2691 219 2414 64 
Q 2138 -91 1772 -91 
Q 1169 -91 856 284 
Q 544 659 544 1381 
z
M 1991 3584 
L 1991 3584 
z
" transform="scale(0.015625)"/>
      <path id="DejaVuSans-63" d="M 3122 3366 
L 3122 2828 
Q 2878 2963 2633 3030 
Q 2388 3097 2138 3097 
Q 1578 3097 1268 2742 
Q 959 2388 959 1747 
Q 959 1106 1268 751 
Q 1578 397 2138 397 
Q 2388 397 2633 464 
Q 2878 531 3122 666 
L 3122 134 
Q 2881 22 2623 -34 
Q 2366 -91 2075 -91 
Q 1284 -91 818 406 
Q 353 903 353 1747 
Q 353 2603 823 3093 
Q 1294 3584 2113 3584 
Q 2378 3584 2631 3529 
Q 2884 3475 3122 3366 
z
" transform="scale(0.015625)"/>
      <path id="DejaVuSans-79" d="M 2059 -325 
Q 1816 -950 1584 -1140 
Q 1353 -1331 966 -1331 
L 506 -1331 
L 506 -850 
L 844 -850 
Q 1081 -850 1212 -737 
Q 1344 -625 1503 -206 
L 1606 56 
L 191 3500 
L 800 3500 
L 1894 763 
L 2988 3500 
L 3597 3500 
L 2059 -325 
z
" transform="scale(0.015625)"/>
     </defs>
     <use xlink:href="#DejaVuSans-46"/>
     <use xlink:href="#DejaVuSans-72" x="50.269531"/>
     <use xlink:href="#DejaVuSans-65" x="89.132812"/>
     <use xlink:href="#DejaVuSans-71" x="150.65625"/>
     <use xlink:href="#DejaVuSans-75" x="214.132812"/>
     <use xlink:href="#DejaVuSans-65" x="277.511719"/>
     <use xlink:href="#DejaVuSans-6e" x="339.035156"/>
     <use xlink:href="#DejaVuSans-63" x="402.414062"/>
     <use xlink:href="#DejaVuSans-79" x="457.394531"/>
     <use xlink:href="#DejaVuSans-20" x="516.574219"/>
     <use xlink:href="#DejaVuSans-64" x="548.361328"/>
     <use xlink:href="#DejaVuSans-6f" x="611.837891"/>
     <use xlink:href="#DejaVuSans-6d" x="673.019531"/>
     <use xlink:href="#DejaVuSans-61" x="770.431641"/>
     <use xlink:href="#DejaVuSans-69" x="831.710938"/>
     <use xlink:href="#DejaVuSans-6e" x="859.494141"/>
    </g>
   </g>
  </g>
 </g>
 <defs>
  <clipPath id="p84e76fe549">
   <rect x="31.08" y="26.08" width="323.74" height="302.84"/>
  </clipPath>
  <clipPath id="p054a2108eb">
   <rect x="386.26" y="26.08" width="323.74" height="302.84"/>
  </clipPath>
 </defs>
</svg>
